<?xml version="1.0" standalone="no"?>
<!DOCTYPE svg PUBLIC "-//W3C//DTD SVG 20010904//EN"
 "http://www.w3.org/TR/2001/REC-SVG-20010904/DTD/svg10.dtd">
<svg version="1.0" xmlns="http://www.w3.org/2000/svg"
 width="1024.000000pt" height="1024.000000pt" viewBox="0 0 1024.000000 1024.000000"
 preserveAspectRatio="xMidYMid meet">

<g transform="translate(0.000000,1024.000000) scale(0.100000,-0.100000)"
fill="#000000" stroke="none">
<path d="M2537 6214 c-3 -4 -6 -173 -7 -377 0 -234 -4 -386 -11 -412 -37 -134
-117 -198 -251 -199 -66 0 -85 5 -142 33 -106 52 -173 153 -179 269 l-2 47
133 3 c120 2 133 4 130 20 -3 15 -21 17 -162 20 l-159 3 5 -85 c13 -244 216
-397 478 -358 182 26 299 131 330 294 6 28 10 208 10 399 l0 349 -83 0 c-46 0
-86 -3 -90 -6z"/>
<path d="M2900 5710 l0 -511 88 3 87 3 0 505 0 505 -87 3 -88 3 0 -511z"/>
<path d="M3260 5710 l0 -510 25 0 25 0 1 253 c1 138 4 330 8 426 l6 174 166
-314 c92 -173 193 -365 225 -427 40 -75 64 -111 74 -109 8 1 65 101 129 227
224 445 315 612 323 593 3 -10 7 -199 7 -420 l1 -403 85 0 85 0 0 510 0 511
-82 -3 -82 -3 -176 -345 c-96 -190 -186 -365 -199 -389 l-23 -43 -35 68 c-67
131 -242 459 -310 584 l-68 125 -92 3 -93 3 0 -511z"/>
<path d="M4600 5710 l0 -510 24 0 c21 0 24 5 29 59 2 32 2 134 0 227 -3 93 -2
258 2 368 l7 198 25 -43 c26 -45 253 -465 371 -686 36 -68 69 -123 73 -123 15
0 52 68 244 448 103 204 194 380 201 390 11 14 13 -52 14 -400 0 -341 3 -419
14 -430 9 -10 33 -13 77 -11 35 1 70 2 77 3 9 0 12 109 12 510 l0 511 -86 -3
-85 -3 -128 -250 c-71 -137 -160 -313 -198 -390 l-70 -139 -59 113 c-32 61
-126 238 -208 392 l-149 279 -93 0 -94 0 0 -510z"/>
<path d="M5877 6203 c4 -10 34 -65 68 -123 34 -58 106 -180 159 -272 l96 -167
0 -220 0 -221 84 0 c67 0 85 3 90 16 3 9 6 114 6 235 l0 219 38 63 c21 34 95
155 165 269 70 114 127 210 127 213 0 3 -13 5 -30 5 -20 0 -34 -7 -43 -22 -8
-13 -72 -117 -142 -233 -70 -115 -131 -214 -135 -218 -8 -9 -44 51 -200 326
l-84 147 -103 0 c-93 0 -102 -2 -96 -17z"/>
<path d="M7488 5703 l-3 -78 -335 -3 c-184 -1 -339 -7 -343 -11 -29 -29 17
-31 778 -31 714 0 773 1 779 17 4 9 4 54 0 100 l-7 83 -433 0 -433 0 -3 -77z"/>
<path d="M6152 5069 c-201 -35 -324 -213 -270 -391 17 -58 79 -123 151 -157
34 -17 130 -50 212 -73 181 -52 235 -81 264 -141 26 -53 26 -90 2 -144 -26
-55 -80 -90 -172 -109 -215 -45 -408 55 -437 229 -6 33 -12 43 -30 45 -20 3
-22 -1 -22 -36 0 -201 238 -336 507 -288 200 35 315 166 300 342 -8 107 -63
177 -180 229 -30 13 -122 42 -206 66 -164 45 -228 78 -261 131 -24 39 -26 107
-5 148 44 85 182 126 324 96 133 -28 209 -94 231 -202 10 -47 14 -54 36 -54
21 0 24 5 24 34 0 73 -51 163 -118 210 -80 55 -239 85 -350 65z"/>
<path d="M7870 5069 c-115 -20 -205 -80 -255 -171 -55 -101 -32 -257 48 -324
51 -43 120 -72 284 -120 170 -50 216 -69 250 -106 43 -46 57 -133 29 -186 -39
-76 -125 -115 -251 -116 -196 -1 -323 81 -356 230 -11 48 -15 54 -37 54 -24 0
-24 -2 -19 -45 11 -75 45 -142 99 -190 167 -150 525 -129 652 38 66 87 80 211
33 303 -48 94 -120 135 -367 209 -228 69 -280 106 -280 205 0 58 27 102 82
133 113 65 299 55 404 -22 44 -33 88 -105 98 -163 6 -32 11 -38 31 -38 21 0
25 5 25 31 0 58 -23 111 -72 164 -53 58 -112 88 -217 111 -74 15 -101 16 -181
3z"/>
<path d="M3571 5050 l-344 -5 2 -510 c2 -378 5 -512 14 -517 15 -9 500 -10
615 -1 78 6 82 7 82 29 l0 24 -270 0 -270 0 2 223 3 222 233 3 232 2 0 25 0
25 -232 2 -233 3 -3 212 -2 213 262 2 c247 3 263 4 266 22 2 10 0 21 -5 25 -4
3 -163 4 -352 1z"/>
<path d="M4856 5047 c-14 -11 -16 -57 -18 -381 l-3 -370 -245 290 c-134 159
-277 329 -318 377 l-74 88 -77 -3 -76 -3 0 -512 c0 -281 3 -514 7 -518 3 -4
16 -4 27 0 21 6 21 10 21 426 0 230 3 419 8 418 4 0 43 -44 87 -97 44 -53 149
-177 234 -277 84 -99 206 -241 270 -317 123 -144 146 -164 180 -153 l21 6 0
514 c0 542 0 544 -44 512z"/>
<path d="M1880 4536 c0 -448 2 -515 15 -520 8 -3 22 -3 30 0 13 5 15 63 16
433 0 404 1 425 17 402 18 -26 294 -540 388 -723 31 -60 62 -108 69 -108 8 0
108 187 232 430 l218 429 6 -182 c4 -100 7 -293 8 -429 l1 -248 23 -4 c12 -3
49 -4 82 -3 l60 2 3 518 2 518 -82 -3 -83 -3 -88 -175 c-199 -392 -310 -601
-317 -593 -5 4 -97 175 -205 378 -109 204 -202 376 -207 383 -7 8 -40 12 -99
12 l-89 0 0 -514z"/>
<path d="M5080 4536 c0 -459 2 -515 16 -520 20 -8 658 -8 678 0 9 3 16 17 16
30 l0 24 -270 0 -270 0 2 223 3 222 233 3 232 2 0 25 0 25 -232 2 -233 3 -3
212 -2 213 262 2 263 3 3 23 3 22 -350 0 -351 0 0 -514z"/>
<path d="M6802 4533 l3 -518 330 -3 c182 -1 340 0 353 3 17 4 22 12 20 28 l-3
22 -267 3 -268 2 0 225 0 225 235 0 235 0 0 25 0 25 -235 0 -235 0 0 215 0
215 259 0 c227 0 260 2 265 16 3 9 4 20 0 25 -3 5 -154 9 -350 9 l-344 0 2
-517z"/>
</g>
</svg>
